<?xml version="1.0" encoding="UTF-8"?>
<!DOCTYPE svg PUBLIC "-//W3C//DTD SVG 1.1//EN" "http://www.w3.org/Graphics/SVG/1.1/DTD/svg11.dtd">
<svg xmlns="http://www.w3.org/2000/svg" version="1.1" width="1024px" height="1024px" style="shape-rendering:geometricPrecision; text-rendering:geometricPrecision; image-rendering:optimizeQuality; fill-rule:evenodd; clip-rule:evenodd" xmlns:xlink="http://www.w3.org/1999/xlink">
<g><path style="opacity:1" fill="#fefefe" d="M -0.5,-0.5 C 340.833,-0.5 682.167,-0.5 1023.5,-0.5C 1023.5,340.833 1023.5,682.167 1023.5,1023.5C 682.167,1023.5 340.833,1023.5 -0.5,1023.5C -0.5,682.167 -0.5,340.833 -0.5,-0.5 Z"/></g>
<g><path style="opacity:1" fill="#02273c" d="M 544.5,779.5 C 538.629,778.191 532.629,778.191 526.5,779.5C 526.167,778.833 525.833,778.167 525.5,777.5C 526.069,774.532 526.403,771.532 526.5,768.5C 523.9,755.829 523.9,743.163 526.5,730.5C 524.185,725.024 524.519,719.69 527.5,714.5C 525.74,712.89 524.74,710.89 524.5,708.5C 524.769,704.9 525.769,701.567 527.5,698.5C 526.273,697.41 525.44,696.076 525,694.5C 524.833,688.5 524.667,682.5 524.5,676.5C 524.316,667.738 524.983,659.072 526.5,650.5C 523.963,639.866 523.963,629.199 526.5,618.5C 524.465,613.238 524.465,607.905 526.5,602.5C 525.902,601.205 525.402,599.872 525,598.5C 523.885,582.434 523.385,566.434 523.5,550.5C 526.286,550.626 529.119,549.959 532,548.5C 535.108,549.435 538.275,550.101 541.5,550.5C 546.143,549.67 550.81,549.003 555.5,548.5C 565.783,550.199 576.116,550.699 586.5,550C 581.5,549.667 576.5,549.333 571.5,549C 581.533,548.758 591.533,548.258 601.5,547.5C 602.167,552.833 602.833,552.833 603.5,547.5C 604.833,547.5 606.167,547.5 607.5,547.5C 607.5,538.833 607.5,530.167 607.5,521.5C 604.934,521.656 602.434,521.322 600,520.5C 597.953,521.609 595.787,522.276 593.5,522.5C 593.762,521.022 593.429,519.689 592.5,518.5C 590.38,519.403 590.046,520.737 591.5,522.5C 590.624,523.251 589.624,523.751 588.5,524C 566.503,524.5 544.503,524.667 522.5,524.5C 522.5,506.167 522.5,487.833 522.5,469.5C 557.566,463.885 583.066,445.219 599,413.5C 614.824,370.295 605.657,333.462 571.5,303C 550.136,287.157 526.136,280.324 499.5,282.5C 461.653,288.406 435.653,309.072 421.5,344.5C 408.93,384.548 417.93,419.048 448.5,448C 463.409,460.121 480.409,467.288 499.5,469.5C 499.5,488.167 499.5,506.833 499.5,525.5C 465.833,525.5 432.167,525.5 398.5,525.5C 398.175,532.687 398.509,539.687 399.5,546.5C 432.662,547.498 465.996,547.832 499.5,547.5C 499.5,625.167 499.5,702.833 499.5,780.5C 412.778,775.395 343.278,738.395 291,669.5C 239.318,594.725 225.652,513.392 250,425.5C 269.707,363.803 306.207,314.637 359.5,278C 468.549,208.836 574.883,212.836 678.5,290C 758.074,355.646 792.574,440.146 782,543.5C 767,634.444 719.834,702.944 640.5,749C 610.344,765.038 578.344,775.204 544.5,779.5 Z"/></g>
<g><path style="opacity:1" fill="#67e3df" d="M 499.5,282.5 C 526.136,280.324 550.136,287.157 571.5,303C 605.657,333.462 614.824,370.295 599,413.5C 583.066,445.219 557.566,463.885 522.5,469.5C 522.5,459.833 522.5,450.167 522.5,440.5C 557.886,432.649 576.886,410.482 579.5,374C 577.23,344.067 562.23,323.401 534.5,312C 523.052,308.903 511.385,307.736 499.5,308.5C 499.5,299.833 499.5,291.167 499.5,282.5 Z"/></g>
<g><path style="opacity:1" fill="#45a0b8" d="M 499.5,282.5 C 499.5,291.167 499.5,299.833 499.5,308.5C 469.626,315.207 451.126,333.54 444,363.5C 442.525,375.484 443.692,387.151 447.5,398.5C 445.203,396.835 443.87,394.502 443.5,391.5C 441.004,379.871 440.837,368.204 443,356.5C 444.88,352.641 446.713,348.807 448.5,345C 447.095,343.731 445.429,343.231 443.5,343.5C 443.5,344.833 443.5,346.167 443.5,347.5C 440.833,347.5 438.167,347.5 435.5,347.5C 435.029,352.048 432.696,355.048 428.5,356.5C 428.431,359.084 427.265,361.084 425,362.5C 424.506,364.134 424.34,365.801 424.5,367.5C 423.178,367.33 422.011,367.663 421,368.5C 417.451,365.934 417.951,363.101 422.5,360C 420.322,354.998 419.989,349.832 421.5,344.5C 435.653,309.072 461.653,288.406 499.5,282.5 Z"/></g>
<g><path style="opacity:1" fill="#3a9cb9" d="M 418.5,463.5 C 392.005,464.498 365.339,464.831 338.5,464.5C 338.5,434.167 338.5,403.833 338.5,373.5C 353.259,354.076 370.926,337.743 391.5,324.5C 391.833,325.167 392.167,325.833 392.5,326.5C 375.786,377.253 384.453,422.92 418.5,463.5 Z"/></g>
<g><path style="opacity:1" fill="#02273c" d="M 501.5,330.5 C 529.851,328.077 548.018,340.41 556,367.5C 557.73,387.539 550.23,403.039 533.5,414C 515.7,422.195 498.7,420.862 482.5,410C 462.97,391.198 460.47,370.365 475,347.5C 482.386,339.401 491.22,333.734 501.5,330.5 Z"/></g>
<g><path style="opacity:1" fill="#3e97b1" d="M 447.5,398.5 C 456.932,422.935 474.598,436.935 500.5,440.5C 500.831,469.005 500.498,497.338 499.5,525.5C 499.5,506.833 499.5,488.167 499.5,469.5C 480.409,467.288 463.409,460.121 448.5,448C 417.93,419.048 408.93,384.548 421.5,344.5C 419.989,349.832 420.322,354.998 422.5,360C 417.951,363.101 417.451,365.934 421,368.5C 422.011,367.663 423.178,367.33 424.5,367.5C 424.34,365.801 424.506,364.134 425,362.5C 427.265,361.084 428.431,359.084 428.5,356.5C 432.696,355.048 435.029,352.048 435.5,347.5C 438.167,347.5 440.833,347.5 443.5,347.5C 443.5,346.167 443.5,344.833 443.5,343.5C 445.429,343.231 447.095,343.731 448.5,345C 446.713,348.807 444.88,352.641 443,356.5C 440.837,368.204 441.004,379.871 443.5,391.5C 443.87,394.502 445.203,396.835 447.5,398.5 Z"/></g>
<g><path style="opacity:1" fill="#62e4e1" d="M 723.5,463.5 C 691.004,464.498 658.338,464.832 625.5,464.5C 625.5,453.5 625.5,442.5 625.5,431.5C 635.194,409.86 639.027,387.193 637,363.5C 635.039,350.037 632.706,336.703 630,323.5C 681.299,356.648 712.466,403.315 723.5,463.5 Z"/></g>
<g><path style="opacity:1" fill="#499db3" d="M 625.5,431.5 C 625.5,442.5 625.5,453.5 625.5,464.5C 619.242,464.19 613.076,464.524 607,465.5C 605.583,464.922 604.75,463.922 604.5,462.5C 612.707,452.964 619.707,442.631 625.5,431.5 Z"/></g>
<g><path style="opacity:1" fill="#267b9c" d="M 338.5,373.5 C 338.5,403.833 338.5,434.167 338.5,464.5C 365.339,464.831 392.005,464.498 418.5,463.5C 429.714,474.777 442.381,484.11 456.5,491.5C 457.773,492.257 457.773,492.923 456.5,493.5C 432.164,493.667 407.831,493.5 383.5,493C 367.284,480.757 349.284,477.09 329.5,482C 326.524,482.705 323.858,483.871 321.5,485.5C 316.87,486.957 312.87,489.457 309.5,493C 305.179,493.499 300.846,493.666 296.5,493.5C 296.995,448.564 310.995,408.564 338.5,373.5 Z"/></g>
<g><path style="opacity:1" fill="#55c1ce" d="M 723.5,463.5 C 725.14,472.95 725.807,482.616 725.5,492.5C 692.167,492.5 658.833,492.5 625.5,492.5C 625.5,483.167 625.5,473.833 625.5,464.5C 658.338,464.832 691.004,464.498 723.5,463.5 Z"/></g>
<g><path style="opacity:1" fill="#2b7c98" d="M 604.5,462.5 C 604.75,463.922 605.583,464.922 607,465.5C 613.076,464.524 619.242,464.19 625.5,464.5C 625.5,473.833 625.5,483.167 625.5,492.5C 604.66,492.831 583.993,492.497 563.5,491.5C 578.717,484.055 592.384,474.389 604.5,462.5 Z"/></g>
<g><path style="opacity:1" fill="#01273f" d="M 456.5,493.5 C 455.587,499.441 455.254,505.441 455.5,511.5C 456.833,511.5 458.167,511.5 459.5,511.5C 459.5,510.167 459.5,508.833 459.5,507.5C 460.833,507.5 462.167,507.5 463.5,507.5C 463.5,506.167 463.5,504.833 463.5,503.5C 466.167,503.5 468.833,503.5 471.5,503.5C 471.5,506.167 471.5,508.833 471.5,511.5C 468.833,511.5 466.167,511.5 463.5,511.5C 463.5,512.833 463.5,514.167 463.5,515.5C 464.833,515.5 466.167,515.5 467.5,515.5C 467.5,516.833 467.5,518.167 467.5,519.5C 464.833,519.5 462.167,519.5 459.5,519.5C 459.67,520.822 459.337,521.989 458.5,523C 451.167,523.667 443.833,523.667 436.5,523C 435.663,521.989 435.33,520.822 435.5,519.5C 430.833,519.5 426.167,519.5 421.5,519.5C 421.625,522.893 419.958,524.226 416.5,523.5C 413.042,524.226 411.375,522.893 411.5,519.5C 414.167,519.5 416.833,519.5 419.5,519.5C 419.5,516.833 419.5,514.167 419.5,511.5C 407.5,511.5 395.5,511.5 383.5,511.5C 383.5,508.833 383.5,506.167 383.5,503.5C 380.833,503.5 378.167,503.5 375.5,503.5C 375.5,501.167 375.5,498.833 375.5,496.5C 372.833,496.5 370.167,496.5 367.5,496.5C 367.5,498.167 367.5,499.833 367.5,501.5C 366.167,501.5 364.833,501.5 363.5,501.5C 363.5,499.5 363.5,497.5 363.5,495.5C 358.167,495.5 352.833,495.5 347.5,495.5C 347.063,498.807 347.73,501.807 349.5,504.5C 348.424,505.656 347.424,505.489 346.5,504C 342.855,503.281 339.188,502.781 335.5,502.5C 335.5,498.833 335.5,495.167 335.5,491.5C 336.833,491.5 338.167,491.5 339.5,491.5C 339.5,490.167 339.5,488.833 339.5,487.5C 334.489,487.666 329.489,487.499 324.5,487C 323.263,486.768 322.263,486.268 321.5,485.5C 323.858,483.871 326.524,482.705 329.5,482C 349.284,477.09 367.284,480.757 383.5,493C 407.831,493.5 432.164,493.667 456.5,493.5 Z"/></g>
<g><path style="opacity:1" fill="#21667b" d="M 563.5,491.5 C 583.993,492.497 604.66,492.831 625.5,492.5C 658.833,492.5 692.167,492.5 725.5,492.5C 671.332,493.831 616.998,493.831 562.5,492.5C 562.624,491.893 562.957,491.56 563.5,491.5 Z"/></g>
<g><path style="opacity:1" fill="#04321c" d="M 354.5,510.5 C 345.961,508.635 337.961,509.968 330.5,514.5C 330.5,513.5 330.5,512.5 330.5,511.5C 335.902,509.977 341.402,508.977 347,508.5C 349.167,508.667 351.333,508.833 353.5,509C 354.056,509.383 354.389,509.883 354.5,510.5 Z"/></g>
<g><path style="opacity:1" fill="#9afb60" d="M 354.5,510.5 C 360.995,513.321 366.328,517.654 370.5,523.5C 373.569,530.928 374.236,538.595 372.5,546.5C 371.833,546.5 371.5,546.833 371.5,547.5C 353.808,541.786 339.141,531.786 327.5,517.5C 328.306,516.272 329.306,515.272 330.5,514.5C 337.961,509.968 345.961,508.635 354.5,510.5 Z"/></g>
<g><path style="opacity:1" fill="#b1f891" d="M 725.5,525.5 C 725.784,527.415 725.451,529.081 724.5,530.5C 724.5,529.167 724.5,527.833 724.5,526.5C 692.167,526.5 659.833,526.5 627.5,526.5C 627.5,533.167 627.5,539.833 627.5,546.5C 627.167,546.5 626.833,546.5 626.5,546.5C 626.5,539.5 626.5,532.5 626.5,525.5C 659.5,525.5 692.5,525.5 725.5,525.5 Z"/></g>
<g><path style="opacity:1" fill="#a3fd6c" d="M 724.5,530.5 C 724.5,534.833 724.5,539.167 724.5,543.5C 723.596,544.209 723.263,545.209 723.5,546.5C 691.5,546.5 659.5,546.5 627.5,546.5C 627.5,539.833 627.5,533.167 627.5,526.5C 659.833,526.5 692.167,526.5 724.5,526.5C 724.5,527.833 724.5,529.167 724.5,530.5 Z"/></g>
<g><path style="opacity:1" fill="#54aa10" d="M 327.5,517.5 C 339.141,531.786 353.808,541.786 371.5,547.5C 369.363,552.783 366.03,557.116 361.5,560.5C 359.847,560.66 358.514,561.326 357.5,562.5C 350.229,564.883 342.896,565.05 335.5,563C 330.736,560.073 326.403,556.573 322.5,552.5C 319.424,545.856 318.09,538.856 318.5,531.5C 320.093,526.98 322.26,522.647 325,518.5C 325.671,517.748 326.504,517.414 327.5,517.5 Z"/></g>
<g><path style="opacity:1" fill="#02311c" d="M 370.5,523.5 C 371.85,524.483 372.85,525.816 373.5,527.5C 374.663,533.137 374.83,538.804 374,544.5C 373.722,545.416 373.222,546.082 372.5,546.5C 374.236,538.595 373.569,530.928 370.5,523.5 Z"/></g>
<g><path style="opacity:1" fill="#093b29" d="M 725.5,525.5 C 726.165,528.314 726.498,531.314 726.5,534.5C 726.483,537.913 725.816,540.913 724.5,543.5C 724.5,539.167 724.5,534.833 724.5,530.5C 725.451,529.081 725.784,527.415 725.5,525.5 Z"/></g>
<g><path style="opacity:1" fill="#083b1d" d="M 318.5,531.5 C 318.09,538.856 319.424,545.856 322.5,552.5C 319.962,549.755 318.462,546.422 318,542.5C 317.19,538.642 317.357,534.976 318.5,531.5 Z"/></g>
<g><path style="opacity:1" fill="#5cb710" d="M 627.5,546.5 C 659.5,546.5 691.5,546.5 723.5,546.5C 722.608,552.188 721.608,557.854 720.5,563.5C 720.5,563.833 720.5,564.167 720.5,564.5C 718.926,567.907 717.926,571.573 717.5,575.5C 716.129,577.936 715.129,580.603 714.5,583.5C 685.5,583.5 656.5,583.5 627.5,583.5C 627.5,571.167 627.5,558.833 627.5,546.5 Z"/></g>
<g><path style="opacity:1" fill="#072f2c" d="M 372.5,546.5 C 372.604,549.09 371.937,551.423 370.5,553.5C 372.044,556.421 371.044,558.087 367.5,558.5C 366.416,559.665 365.583,560.998 365,562.5C 364.184,561.177 363.017,560.511 361.5,560.5C 366.03,557.116 369.363,552.783 371.5,547.5C 371.5,546.833 371.833,546.5 372.5,546.5 Z"/></g>
<g><path style="opacity:1" fill="#063423" d="M 724.5,543.5 C 724.666,547.846 724.499,552.179 724,556.5C 723.257,559.192 722.09,561.525 720.5,563.5C 721.608,557.854 722.608,552.188 723.5,546.5C 723.263,545.209 723.596,544.209 724.5,543.5 Z"/></g>
<g><path style="opacity:1" fill="#073324" d="M 322.5,552.5 C 326.403,556.573 330.736,560.073 335.5,563C 342.896,565.05 350.229,564.883 357.5,562.5C 356.263,564.097 354.596,565.263 352.5,566C 344.817,567.021 337.483,565.855 330.5,562.5C 327.649,564.142 326.983,563.475 328.5,560.5C 326.066,558.079 324.066,555.412 322.5,552.5 Z"/></g>
<g><path style="opacity:1" fill="#073c1c" d="M 720.5,564.5 C 720.619,568.347 719.953,572.014 718.5,575.5C 718.167,575.5 717.833,575.5 717.5,575.5C 717.926,571.573 718.926,567.907 720.5,564.5 Z"/></g>
<g><path style="opacity:1" fill="#5ead43" d="M 626.5,546.5 C 626.833,546.5 627.167,546.5 627.5,546.5C 627.5,558.833 627.5,571.167 627.5,583.5C 656.5,583.5 685.5,583.5 714.5,583.5C 714.5,584.167 714.167,584.5 713.5,584.5C 684.5,584.5 655.5,584.5 626.5,584.5C 626.5,571.833 626.5,559.167 626.5,546.5 Z"/></g>
<g><path style="opacity:1" fill="#0a4416" d="M 725.5,525.5 C 692.5,525.5 659.5,525.5 626.5,525.5C 626.5,532.5 626.5,539.5 626.5,546.5C 626.5,559.167 626.5,571.833 626.5,584.5C 655.5,584.5 684.5,584.5 713.5,584.5C 684.338,585.498 655.005,585.831 625.5,585.5C 625.5,565.167 625.5,544.833 625.5,524.5C 659.004,524.168 692.338,524.502 725.5,525.5 Z"/></g>
<g><path style="opacity:1" fill="#012e29" d="M 717.5,575.5 C 717.833,575.5 718.167,575.5 718.5,575.5C 719.293,579.213 719.293,582.88 718.5,586.5C 687.448,586.813 656.448,586.479 625.5,585.5C 655.005,585.831 684.338,585.498 713.5,584.5C 714.167,584.5 714.5,584.167 714.5,583.5C 715.129,580.603 716.129,577.936 717.5,575.5 Z"/></g>
<g><path style="opacity:1" fill="#0e2b3b" d="M 544.5,779.5 C 538.828,779.76 533.161,780.093 527.5,780.5C 525.833,780.5 524.167,780.5 522.5,780.5C 522.5,702.5 522.5,624.5 522.5,546.5C 547.5,546.5 572.5,546.5 597.5,546.5C 597.5,539.5 597.5,532.5 597.5,525.5C 572.328,525.831 547.328,525.498 522.5,524.5C 544.503,524.667 566.503,524.5 588.5,524C 589.624,523.751 590.624,523.251 591.5,522.5C 590.046,520.737 590.38,519.403 592.5,518.5C 593.429,519.689 593.762,521.022 593.5,522.5C 595.787,522.276 597.953,521.609 600,520.5C 602.434,521.322 604.934,521.656 607.5,521.5C 607.5,530.167 607.5,538.833 607.5,547.5C 606.167,547.5 604.833,547.5 603.5,547.5C 602.833,552.833 602.167,552.833 601.5,547.5C 591.533,548.258 581.533,548.758 571.5,549C 576.5,549.333 581.5,549.667 586.5,550C 576.116,550.699 565.783,550.199 555.5,548.5C 550.81,549.003 546.143,549.67 541.5,550.5C 538.275,550.101 535.108,549.435 532,548.5C 529.119,549.959 526.286,550.626 523.5,550.5C 523.385,566.434 523.885,582.434 525,598.5C 525.402,599.872 525.902,601.205 526.5,602.5C 524.465,607.905 524.465,613.238 526.5,618.5C 523.963,629.199 523.963,639.866 526.5,650.5C 524.983,659.072 524.316,667.738 524.5,676.5C 524.667,682.5 524.833,688.5 525,694.5C 525.44,696.076 526.273,697.41 527.5,698.5C 525.769,701.567 524.769,704.9 524.5,708.5C 524.74,710.89 525.74,712.89 527.5,714.5C 524.519,719.69 524.185,725.024 526.5,730.5C 523.9,743.163 523.9,755.829 526.5,768.5C 526.403,771.532 526.069,774.532 525.5,777.5C 525.833,778.167 526.167,778.833 526.5,779.5C 532.629,778.191 538.629,778.191 544.5,779.5 Z"/></g>
<g><path style="opacity:1" fill="#adbdc7" d="M 522.5,546.5 C 522.5,624.5 522.5,702.5 522.5,780.5C 524.167,780.5 525.833,780.5 527.5,780.5C 525.735,781.461 523.735,781.795 521.5,781.5C 521.167,702.998 521.501,624.665 522.5,546.5 Z"/></g>
<g><path style="opacity:1" fill="#012c25" d="M 699.5,617.5 C 651.33,617.168 603.33,617.501 555.5,618.5C 554.502,651.996 554.168,685.663 554.5,719.5C 553.502,686.004 553.168,652.337 553.5,618.5C 577.491,617.167 601.824,616.5 626.5,616.5C 651.002,616.5 675.336,616.833 699.5,617.5 Z"/></g>
<g><path style="opacity:1" fill="#00360c" d="M 555.5,618.5 C 603.33,617.501 651.33,617.168 699.5,617.5C 699.768,619.099 699.434,620.432 698.5,621.5C 698.5,620.5 698.5,619.5 698.5,618.5C 650.833,618.5 603.167,618.5 555.5,618.5 Z"/></g>
<g><path style="opacity:1" fill="#3b792f" d="M 466.5,618.5 C 466.5,618.833 466.5,619.167 466.5,619.5C 419.5,619.5 372.5,619.5 325.5,619.5C 325.5,620.833 325.5,622.167 325.5,623.5C 323.926,621.898 323.259,619.898 323.5,617.5C 371.336,617.168 419.003,617.501 466.5,618.5 Z"/></g>
<g><path style="opacity:1" fill="#52923f" d="M 555.5,618.5 C 603.167,618.5 650.833,618.5 698.5,618.5C 698.5,619.5 698.5,620.5 698.5,621.5C 698.167,621.5 697.833,621.5 697.5,621.5C 674.343,620.167 650.843,619.5 627,619.5C 603.331,619.5 579.831,619.833 556.5,620.5C 555.502,653.329 555.168,686.329 555.5,719.5C 555.167,719.5 554.833,719.5 554.5,719.5C 554.168,685.663 554.502,651.996 555.5,618.5 Z"/></g>
<g><path style="opacity:1" fill="#53a60a" d="M 455.5,716.5 C 455.719,715.325 455.386,714.325 454.5,713.5C 451.405,715.114 448.739,714.614 446.5,712C 447.167,711.667 447.833,711.333 448.5,711C 447.663,709.989 447.33,708.822 447.5,707.5C 446.167,707.5 444.833,707.5 443.5,707.5C 443.5,706.167 443.5,704.833 443.5,703.5C 444.833,703.5 446.167,703.5 447.5,703.5C 447.5,698.167 447.5,692.833 447.5,687.5C 444.833,687.5 442.167,687.5 439.5,687.5C 439.5,682.167 439.5,676.833 439.5,671.5C 434.167,671.5 428.833,671.5 423.5,671.5C 423.5,670.167 423.5,668.833 423.5,667.5C 422.167,667.5 420.833,667.5 419.5,667.5C 419.5,666.167 419.5,664.833 419.5,663.5C 418.167,663.5 416.833,663.5 415.5,663.5C 415.5,660.833 415.5,658.167 415.5,655.5C 414.167,655.5 412.833,655.5 411.5,655.5C 411.5,654.167 411.5,652.833 411.5,651.5C 408.833,651.5 406.167,651.5 403.5,651.5C 403.5,650.167 403.5,648.833 403.5,647.5C 391.5,647.5 379.5,647.5 367.5,647.5C 367.5,646.167 367.5,644.833 367.5,643.5C 364.833,643.5 362.167,643.5 359.5,643.5C 359.5,644.833 359.5,646.167 359.5,647.5C 355.15,647.254 351.15,648.254 347.5,650.5C 346.151,650.154 344.817,649.821 343.5,649.5C 341.115,647.116 339.115,644.45 337.5,641.5C 335.183,636.837 333.85,632.17 333.5,627.5C 329.463,626.962 327.129,624.628 326.5,620.5C 372.833,620.5 419.167,620.5 465.5,620.5C 465.738,652.511 465.405,684.511 464.5,716.5C 461.5,716.5 458.5,716.5 455.5,716.5 Z"/></g>
<g><path style="opacity:1" fill="#5bb60b" d="M 556.5,620.5 C 594.835,620.333 633.168,620.5 671.5,621C 666.136,621.171 660.802,621.671 655.5,622.5C 658.086,623.48 660.753,623.813 663.5,623.5C 663.5,626.167 663.5,628.833 663.5,631.5C 666.119,631.232 668.619,631.565 671,632.5C 671.499,637.489 671.666,642.489 671.5,647.5C 666.167,647.5 660.833,647.5 655.5,647.5C 655.5,650.167 655.5,652.833 655.5,655.5C 658.572,655.183 661.572,655.516 664.5,656.5C 663.077,659.88 661.743,663.214 660.5,666.5C 658.669,665.948 657.003,665.948 655.5,666.5C 656.309,668.071 656.643,669.738 656.5,671.5C 653.306,674.272 650.306,677.272 647.5,680.5C 645.596,680.738 644.262,681.738 643.5,683.5C 637.33,687.419 630.997,691.086 624.5,694.5C 622.833,694.5 621.167,694.5 619.5,694.5C 619.244,692.208 619.577,690.041 620.5,688C 618.866,687.506 617.199,687.34 615.5,687.5C 615.649,686.448 615.483,685.448 615,684.5C 611.409,686.32 607.576,687.32 603.5,687.5C 603.5,690.167 603.5,692.833 603.5,695.5C 602.167,695.5 600.833,695.5 599.5,695.5C 599.5,697.833 599.5,700.167 599.5,702.5C 596.833,702.833 594.167,703.167 591.5,703.5C 591.5,698.167 591.5,692.833 591.5,687.5C 586.167,687.5 580.833,687.5 575.5,687.5C 575.5,690.167 575.5,692.833 575.5,695.5C 572.833,695.5 570.167,695.5 567.5,695.5C 567.5,692.833 567.5,690.167 567.5,687.5C 566.167,687.5 564.833,687.5 563.5,687.5C 563.5,690.167 563.5,692.833 563.5,695.5C 562.167,695.5 560.833,695.5 559.5,695.5C 559.785,693.712 559.452,692.045 558.5,690.5C 557.914,690.709 557.414,691.043 557,691.5C 556.5,667.836 556.333,644.169 556.5,620.5 Z"/></g>
<g><path style="opacity:1" fill="#5cb316" d="M 556.5,620.5 C 579.831,619.833 603.331,619.5 627,619.5C 650.843,619.5 674.343,620.167 697.5,621.5C 696.242,623.687 695.242,626.02 694.5,628.5C 692.336,630.822 690.669,633.489 689.5,636.5C 688.094,636.973 687.427,637.973 687.5,639.5C 682.489,644.349 677.989,649.683 674,655.5C 668.596,661.409 662.763,666.742 656.5,671.5C 656.643,669.738 656.309,668.071 655.5,666.5C 657.003,665.948 658.669,665.948 660.5,666.5C 661.743,663.214 663.077,659.88 664.5,656.5C 661.572,655.516 658.572,655.183 655.5,655.5C 655.5,652.833 655.5,650.167 655.5,647.5C 660.833,647.5 666.167,647.5 671.5,647.5C 671.666,642.489 671.499,637.489 671,632.5C 668.619,631.565 666.119,631.232 663.5,631.5C 663.5,628.833 663.5,626.167 663.5,623.5C 660.753,623.813 658.086,623.48 655.5,622.5C 660.802,621.671 666.136,621.171 671.5,621C 633.168,620.5 594.835,620.333 556.5,620.5 Z"/></g>
<g><path style="opacity:1" fill="#083427" d="M 694.5,628.5 C 694.464,632.2 692.797,634.867 689.5,636.5C 690.669,633.489 692.336,630.822 694.5,628.5 Z"/></g>
<g><path style="opacity:1" fill="#4fa20c" d="M 455.5,716.5 C 453.565,715.85 451.565,715.517 449.5,715.5C 443.455,714.291 437.455,712.958 431.5,711.5C 429.68,709.552 427.346,708.552 424.5,708.5C 424.167,708.5 423.833,708.5 423.5,708.5C 418.511,705.339 413.178,702.672 407.5,700.5C 402.659,697.579 397.659,694.912 392.5,692.5C 388.795,689.474 384.795,686.808 380.5,684.5C 375.524,680.53 370.524,676.53 365.5,672.5C 357.833,665.5 350.5,658.167 343.5,650.5C 343.5,650.167 343.5,649.833 343.5,649.5C 344.817,649.821 346.151,650.154 347.5,650.5C 351.15,648.254 355.15,647.254 359.5,647.5C 359.5,646.167 359.5,644.833 359.5,643.5C 362.167,643.5 364.833,643.5 367.5,643.5C 367.5,644.833 367.5,646.167 367.5,647.5C 379.5,647.5 391.5,647.5 403.5,647.5C 403.5,648.833 403.5,650.167 403.5,651.5C 406.167,651.5 408.833,651.5 411.5,651.5C 411.5,652.833 411.5,654.167 411.5,655.5C 412.833,655.5 414.167,655.5 415.5,655.5C 415.5,658.167 415.5,660.833 415.5,663.5C 416.833,663.5 418.167,663.5 419.5,663.5C 419.5,664.833 419.5,666.167 419.5,667.5C 420.833,667.5 422.167,667.5 423.5,667.5C 423.5,668.833 423.5,670.167 423.5,671.5C 428.833,671.5 434.167,671.5 439.5,671.5C 439.5,676.833 439.5,682.167 439.5,687.5C 442.167,687.5 444.833,687.5 447.5,687.5C 447.5,692.833 447.5,698.167 447.5,703.5C 446.167,703.5 444.833,703.5 443.5,703.5C 443.5,704.833 443.5,706.167 443.5,707.5C 444.833,707.5 446.167,707.5 447.5,707.5C 447.33,708.822 447.663,709.989 448.5,711C 447.833,711.333 447.167,711.667 446.5,712C 448.739,714.614 451.405,715.114 454.5,713.5C 455.386,714.325 455.719,715.325 455.5,716.5 Z"/></g>
<g><path style="opacity:1" fill="#07322a" d="M 335.5,640.5 C 336.167,640.833 336.833,641.167 337.5,641.5C 339.115,644.45 341.115,647.116 343.5,649.5C 343.5,649.833 343.5,650.167 343.5,650.5C 341.825,648.998 339.992,647.665 338,646.5C 337.667,646.833 337.333,647.167 337,647.5C 336.56,645.134 336.06,642.801 335.5,640.5 Z"/></g>
<g><path style="opacity:1" fill="#58a225" d="M 466.5,619.5 C 466.5,652.5 466.5,685.5 466.5,718.5C 465.5,718.5 464.5,718.5 463.5,718.5C 458.798,718.05 454.132,717.383 449.5,716.5C 449.5,716.167 449.5,715.833 449.5,715.5C 451.565,715.517 453.565,715.85 455.5,716.5C 458.5,716.5 461.5,716.5 464.5,716.5C 465.405,684.511 465.738,652.511 465.5,620.5C 419.167,620.5 372.833,620.5 326.5,620.5C 327.129,624.628 329.463,626.962 333.5,627.5C 333.85,632.17 335.183,636.837 337.5,641.5C 336.833,641.167 336.167,640.833 335.5,640.5C 332.167,634.833 328.833,629.167 325.5,623.5C 325.5,622.167 325.5,620.833 325.5,619.5C 372.5,619.5 419.5,619.5 466.5,619.5 Z"/></g>
<g><path style="opacity:1" fill="#27671a" d="M 466.5,618.5 C 467.498,651.996 467.832,685.663 467.5,719.5C 465.901,719.768 464.568,719.434 463.5,718.5C 464.5,718.5 465.5,718.5 466.5,718.5C 466.5,685.5 466.5,652.5 466.5,619.5C 466.5,619.167 466.5,618.833 466.5,618.5 Z"/></g>
<g><path style="opacity:1" fill="#02292f" d="M 553.5,618.5 C 553.168,652.337 553.502,686.004 554.5,719.5C 554.833,719.5 555.167,719.5 555.5,719.5C 558.167,719.167 560.833,718.833 563.5,718.5C 560.316,720.414 556.649,721.08 552.5,720.5C 552.168,686.329 552.502,652.329 553.5,618.5 Z"/></g>
<g><path style="opacity:1" fill="#05341b" d="M 687.5,639.5 C 676.842,655.824 663.509,669.491 647.5,680.5C 650.306,677.272 653.306,674.272 656.5,671.5C 662.763,666.742 668.596,661.409 674,655.5C 677.989,649.683 682.489,644.349 687.5,639.5 Z"/></g>
<g><path style="opacity:1" fill="#063622" d="M 365.5,672.5 C 370.524,676.53 375.524,680.53 380.5,684.5C 377.384,683.107 374.384,681.441 371.5,679.5C 368.938,677.576 366.938,675.242 365.5,672.5 Z"/></g>
<g><path style="opacity:1" fill="#043420" d="M 380.5,684.5 C 384.795,686.808 388.795,689.474 392.5,692.5C 387.665,690.984 383.665,688.317 380.5,684.5 Z"/></g>
<g><path style="opacity:1" fill="#93a0a7" d="M 399.5,546.5 C 433.167,546.5 466.833,546.5 500.5,546.5C 500.833,624.668 500.499,702.668 499.5,780.5C 499.5,702.833 499.5,625.167 499.5,547.5C 465.996,547.832 432.662,547.498 399.5,546.5 Z"/></g>
<g><path style="opacity:1" fill="#58af11" d="M 556.5,620.5 C 556.333,644.169 556.5,667.836 557,691.5C 557.414,691.043 557.914,690.709 558.5,690.5C 559.452,692.045 559.785,693.712 559.5,695.5C 560.833,695.5 562.167,695.5 563.5,695.5C 563.5,692.833 563.5,690.167 563.5,687.5C 564.833,687.5 566.167,687.5 567.5,687.5C 567.5,690.167 567.5,692.833 567.5,695.5C 570.167,695.5 572.833,695.5 575.5,695.5C 575.5,692.833 575.5,690.167 575.5,687.5C 580.833,687.5 586.167,687.5 591.5,687.5C 591.5,692.833 591.5,698.167 591.5,703.5C 594.167,703.167 596.833,702.833 599.5,702.5C 599.5,700.167 599.5,697.833 599.5,695.5C 600.833,695.5 602.167,695.5 603.5,695.5C 603.5,692.833 603.5,690.167 603.5,687.5C 607.576,687.32 611.409,686.32 615,684.5C 615.483,685.448 615.649,686.448 615.5,687.5C 617.199,687.34 618.866,687.506 620.5,688C 619.577,690.041 619.244,692.208 619.5,694.5C 621.167,694.5 622.833,694.5 624.5,694.5C 624.167,695.167 623.833,695.833 623.5,696.5C 617.849,698.659 612.516,701.326 607.5,704.5C 600.28,706.792 593.28,709.459 586.5,712.5C 583.848,712.41 581.515,713.076 579.5,714.5C 573.906,715.232 568.573,716.565 563.5,718.5C 560.833,718.833 558.167,719.167 555.5,719.5C 555.168,686.329 555.502,653.329 556.5,620.5 Z"/></g>
<g><path style="opacity:1" fill="#073125" d="M 643.5,683.5 C 641.366,685.47 639.366,687.637 637.5,690C 632.857,692.267 628.19,694.434 623.5,696.5C 623.833,695.833 624.167,695.167 624.5,694.5C 630.997,691.086 637.33,687.419 643.5,683.5 Z"/></g>
<g><path style="opacity:1" fill="#073229" d="M 407.5,700.5 C 413.178,702.672 418.511,705.339 423.5,708.5C 420.729,708.579 418.063,708.079 415.5,707C 413.64,704.938 411.306,703.605 408.5,703C 407.748,702.329 407.414,701.496 407.5,700.5 Z"/></g>
<g><path style="opacity:1" fill="#05341d" d="M 607.5,704.5 C 602.482,707.461 597.149,709.961 591.5,712C 589.866,712.494 588.199,712.66 586.5,712.5C 593.28,709.459 600.28,706.792 607.5,704.5 Z"/></g>
<g><path style="opacity:1" fill="#0a3b1c" d="M 424.5,708.5 C 427.346,708.552 429.68,709.552 431.5,711.5C 428.615,711.357 426.282,710.357 424.5,708.5 Z"/></g>
<g><path style="opacity:1" fill="#05311c" d="M 431.5,711.5 C 437.455,712.958 443.455,714.291 449.5,715.5C 449.5,715.833 449.5,716.167 449.5,716.5C 443.069,715.93 437.069,714.264 431.5,711.5 Z"/></g>
<g><path style="opacity:1" fill="#03301b" d="M 449.5,716.5 C 454.132,717.383 458.798,718.05 463.5,718.5C 464.568,719.434 465.901,719.768 467.5,719.5C 465.372,720.629 463.039,720.796 460.5,720C 457.247,718.964 453.914,718.297 450.5,718C 449.944,717.617 449.611,717.117 449.5,716.5 Z"/></g>
<g><path style="opacity:1" fill="#093522" d="M 579.5,714.5 C 577.525,716.09 575.192,717.257 572.5,718C 569.518,718.498 566.518,718.665 563.5,718.5C 568.573,716.565 573.906,715.232 579.5,714.5 Z"/></g>
</svg>
