<svg width="25" height="29" viewBox="0 0 25 29" fill="none" xmlns="http://www.w3.org/2000/svg">
<path d="M11.375 28.4375C10.593 28.4375 9.9235 28.159 9.3666 27.6021C8.8097 27.0452 8.53125 26.3758 8.53125 25.5938H14.2188C14.2188 26.3758 13.9403 27.0452 13.3834 27.6021C12.8265 28.159 12.157 28.4375 11.375 28.4375ZM1.42188 24.1719C1.01901 24.1719 0.681315 24.0356 0.408789 23.7631C0.136263 23.4906 0 23.1529 0 22.75C0 22.3471 0.136263 22.0094 0.408789 21.7369C0.681315 21.4644 1.01901 21.3281 1.42188 21.3281H2.84375V11.375C2.84375 9.40807 3.4362 7.66035 4.62109 6.13184C5.80599 4.60332 7.34635 3.60208 9.24219 3.12812V2.13281C9.24219 1.54036 9.44954 1.03678 9.86426 0.62207C10.279 0.207357 10.7826 0 11.375 0C11.9674 0 12.471 0.207357 12.8857 0.62207C13.3005 1.03678 13.5078 1.54036 13.5078 2.13281V2.59492C13.2471 3.11628 13.0576 3.64948 12.9391 4.19453C12.8206 4.73958 12.7732 5.29648 12.7969 5.86523C12.5599 5.81784 12.3288 5.77637 12.1037 5.74082C11.8786 5.70527 11.6357 5.6875 11.375 5.6875C9.81094 5.6875 8.47201 6.2444 7.3582 7.3582C6.2444 8.47201 5.6875 9.81094 5.6875 11.375V21.3281H17.0625V12.1926C17.4891 12.3822 17.9452 12.5303 18.4311 12.6369C18.9169 12.7436 19.4086 12.7969 19.9062 12.7969V21.3281H21.3281C21.731 21.3281 22.0687 21.4644 22.3412 21.7369C22.6137 22.0094 22.75 22.3471 22.75 22.75C22.75 23.1529 22.6137 23.4906 22.3412 23.7631C22.0687 24.0356 21.731 24.1719 21.3281 24.1719H1.42188ZM19.9062 9.95312C18.7214 9.95312 17.7142 9.53841 16.8848 8.70898C16.0553 7.87956 15.6406 6.8724 15.6406 5.6875C15.6406 4.5026 16.0553 3.49544 16.8848 2.66602C17.7142 1.83659 18.7214 1.42188 19.9062 1.42188C21.0911 1.42188 22.0983 1.83659 22.9277 2.66602C23.7572 3.49544 24.1719 4.5026 24.1719 5.6875C24.1719 6.8724 23.7572 7.87956 22.9277 8.70898C22.0983 9.53841 21.0911 9.95312 19.9062 9.95312Z" fill="#EC7000"/>
</svg>
