<svg width="24" height="25" viewBox="0 0 24 25" fill="none" xmlns="http://www.w3.org/2000/svg">
<mask id="mask0_956_19000" style="mask-type:alpha" maskUnits="userSpaceOnUse" x="0" y="0" width="24" height="25">
<rect y="0.5" width="24" height="24" fill="#D9D9D9"/>
</mask>
<g mask="url(#mask0_956_19000)">
<path d="M11.9998 16.5C13.2498 16.5 14.3123 16.0625 15.1873 15.1875C16.0623 14.3125 16.4998 13.25 16.4998 12C16.4998 10.75 16.0623 9.6875 15.1873 8.8125C14.3123 7.9375 13.2498 7.5 11.9998 7.5C10.7498 7.5 9.68731 7.9375 8.8123 8.8125C7.9373 9.6875 7.4998 10.75 7.4998 12C7.4998 13.25 7.9373 14.3125 8.8123 15.1875C9.68731 16.0625 10.7498 16.5 11.9998 16.5ZM11.9998 14.7C11.2498 14.7 10.6123 14.4375 10.0873 13.9125C9.56231 13.3875 9.2998 12.75 9.2998 12C9.2998 11.25 9.56231 10.6125 10.0873 10.0875C10.6123 9.5625 11.2498 9.3 11.9998 9.3C12.7498 9.3 13.3873 9.5625 13.9123 10.0875C14.4373 10.6125 14.6998 11.25 14.6998 12C14.6998 12.75 14.4373 13.3875 13.9123 13.9125C13.3873 14.4375 12.7498 14.7 11.9998 14.7ZM11.9998 19.5C9.68314 19.5 7.56647 18.8875 5.6498 17.6625C3.73314 16.4375 2.28314 14.7833 1.2998 12.7C1.2498 12.6167 1.21647 12.5125 1.1998 12.3875C1.18314 12.2625 1.1748 12.1333 1.1748 12C1.1748 11.8667 1.18314 11.7375 1.1998 11.6125C1.21647 11.4875 1.2498 11.3833 1.2998 11.3C2.28314 9.21667 3.73314 7.5625 5.6498 6.3375C7.56647 5.1125 9.68314 4.5 11.9998 4.5C14.3165 4.5 16.4331 5.1125 18.3498 6.3375C20.2665 7.5625 21.7165 9.21667 22.6998 11.3C22.7498 11.3833 22.7831 11.4875 22.7998 11.6125C22.8165 11.7375 22.8248 11.8667 22.8248 12C22.8248 12.1333 22.8165 12.2625 22.7998 12.3875C22.7831 12.5125 22.7498 12.6167 22.6998 12.7C21.7165 14.7833 20.2665 16.4375 18.3498 17.6625C16.4331 18.8875 14.3165 19.5 11.9998 19.5ZM11.9998 17.5C13.8831 17.5 15.6123 17.0042 17.1873 16.0125C18.7623 15.0208 19.9665 13.6833 20.7998 12C19.9665 10.3167 18.7623 8.97917 17.1873 7.9875C15.6123 6.99583 13.8831 6.5 11.9998 6.5C10.1165 6.5 8.38731 6.99583 6.8123 7.9875C5.2373 8.97917 4.03314 10.3167 3.1998 12C4.03314 13.6833 5.2373 15.0208 6.8123 16.0125C8.38731 17.0042 10.1165 17.5 11.9998 17.5Z" fill="#064C7E"/>
</g>
</svg>
