<svg width="18" height="20" viewBox="0 0 18 20" fill="none" xmlns="http://www.w3.org/2000/svg">
<path d="M3 20C2.16667 20 1.45833 19.7083 0.875 19.125C0.291667 18.5417 0 17.8333 0 17V16C0 15.45 0.195833 14.9792 0.5875 14.5875C0.979167 14.1958 1.45 14 2 14H3V2C3 1.45 3.19583 0.979167 3.5875 0.5875C3.97917 0.195833 4.45 0 5 0H16C16.55 0 17.0208 0.195833 17.4125 0.5875C17.8042 0.979167 18 1.45 18 2V17C18 17.8333 17.7083 18.5417 17.125 19.125C16.5417 19.7083 15.8333 20 15 20H3ZM15 18C15.2833 18 15.5208 17.9042 15.7125 17.7125C15.9042 17.5208 16 17.2833 16 17V2H5V14H12C12.55 14 13.0208 14.1958 13.4125 14.5875C13.8042 14.9792 14 15.45 14 16V17C14 17.2833 14.0958 17.5208 14.2875 17.7125C14.4792 17.9042 14.7167 18 15 18ZM7 7C6.71667 7 6.47917 6.90417 6.2875 6.7125C6.09583 6.52083 6 6.28333 6 6C6 5.71667 6.09583 5.47917 6.2875 5.2875C6.47917 5.09583 6.71667 5 7 5H14C14.2833 5 14.5208 5.09583 14.7125 5.2875C14.9042 5.47917 15 5.71667 15 6C15 6.28333 14.9042 6.52083 14.7125 6.7125C14.5208 6.90417 14.2833 7 14 7H7ZM7 10C6.71667 10 6.47917 9.90417 6.2875 9.7125C6.09583 9.52083 6 9.28333 6 9C6 8.71667 6.09583 8.47917 6.2875 8.2875C6.47917 8.09583 6.71667 8 7 8H14C14.2833 8 14.5208 8.09583 14.7125 8.2875C14.9042 8.47917 15 8.71667 15 9C15 9.28333 14.9042 9.52083 14.7125 9.7125C14.5208 9.90417 14.2833 10 14 10H7ZM3 18H12V16H2V17C2 17.2833 2.09583 17.5208 2.2875 17.7125C2.47917 17.9042 2.71667 18 3 18ZM3 18H2H12H3Z" fill="white"/>
</svg>
