<svg width="16" height="20" viewBox="0 0 16 20" fill="none" xmlns="http://www.w3.org/2000/svg">
<path d="M10.75 18L12.75 20H2C1.45 20 0.979167 19.8042 0.5875 19.4125C0.195833 19.0208 0 18.55 0 18V2C0 1.45 0.195833 0.979167 0.5875 0.5875C0.979167 0.195833 1.45 0 2 0H10.075C10.375 0 10.6583 0.0625 10.925 0.1875C11.1917 0.3125 11.4167 0.491667 11.6 0.725L15.525 5.45C15.675 5.63333 15.7917 5.83333 15.875 6.05C15.9583 6.26667 16 6.49167 16 6.725V18C16 18.3333 15.9292 18.6375 15.7875 18.9125C15.6458 19.1875 15.45 19.4167 15.2 19.6L10 14.45C9.71667 14.6333 9.40833 14.7708 9.075 14.8625C8.74167 14.9542 8.38333 15 8 15C6.9 15 5.95833 14.6083 5.175 13.825C4.39167 13.0417 4 12.1 4 11C4 9.9 4.39167 8.95833 5.175 8.175C5.95833 7.39167 6.9 7 8 7C9.1 7 10.0417 7.39167 10.825 8.175C11.6083 8.95833 12 9.9 12 11C12 11.3833 11.9542 11.7417 11.8625 12.075C11.7708 12.4083 11.6333 12.7167 11.45 13L14 15.6V6.7L10.05 2H2V18H10.75ZM8 13C8.55 13 9.02083 12.8042 9.4125 12.4125C9.80417 12.0208 10 11.55 10 11C10 10.45 9.80417 9.97917 9.4125 9.5875C9.02083 9.19583 8.55 9 8 9C7.45 9 6.97917 9.19583 6.5875 9.5875C6.19583 9.97917 6 10.45 6 11C6 11.55 6.19583 12.0208 6.5875 12.4125C6.97917 12.8042 7.45 13 8 13Z" fill="white"/>
</svg>
