<svg width="20" height="22" viewBox="0 0 20 22" fill="none" xmlns="http://www.w3.org/2000/svg">
<path d="M3 22C2.71667 22 2.47917 21.9042 2.2875 21.7125C2.09583 21.5208 2 21.2833 2 21C2 20.7167 2.09583 20.4792 2.2875 20.2875C2.47917 20.0958 2.71667 20 3 20H17C17.2833 20 17.5208 20.0958 17.7125 20.2875C17.9042 20.4792 18 20.7167 18 21C18 21.2833 17.9042 21.5208 17.7125 21.7125C17.5208 21.9042 17.2833 22 17 22H3ZM3 2C2.71667 2 2.47917 1.90417 2.2875 1.7125C2.09583 1.52083 2 1.28333 2 1C2 0.716667 2.09583 0.479167 2.2875 0.2875C2.47917 0.0958333 2.71667 0 3 0H17C17.2833 0 17.5208 0.0958333 17.7125 0.2875C17.9042 0.479167 18 0.716667 18 1C18 1.28333 17.9042 1.52083 17.7125 1.7125C17.5208 1.90417 17.2833 2 17 2H3ZM10 12C10.8333 12 11.5417 11.7083 12.125 11.125C12.7083 10.5417 13 9.83333 13 9C13 8.16667 12.7083 7.45833 12.125 6.875C11.5417 6.29167 10.8333 6 10 6C9.16667 6 8.45833 6.29167 7.875 6.875C7.29167 7.45833 7 8.16667 7 9C7 9.83333 7.29167 10.5417 7.875 11.125C8.45833 11.7083 9.16667 12 10 12ZM2 19C1.45 19 0.979167 18.8042 0.5875 18.4125C0.195833 18.0208 0 17.55 0 17V5C0 4.45 0.195833 3.97917 0.5875 3.5875C0.979167 3.19583 1.45 3 2 3H18C18.55 3 19.0208 3.19583 19.4125 3.5875C19.8042 3.97917 20 4.45 20 5V17C20 17.55 19.8042 18.0208 19.4125 18.4125C19.0208 18.8042 18.55 19 18 19H2ZM3.75 17C4.5 16.0667 5.40833 15.3333 6.475 14.8C7.54167 14.2667 8.71667 14 10 14C11.2833 14 12.4583 14.2667 13.525 14.8C14.5917 15.3333 15.5 16.0667 16.25 17H18V5H2V17H3.75ZM6.7 17H13.3C12.8167 16.6667 12.2958 16.4167 11.7375 16.25C11.1792 16.0833 10.6 16 10 16C9.4 16 8.82083 16.0833 8.2625 16.25C7.70417 16.4167 7.18333 16.6667 6.7 17ZM10 10C9.71667 10 9.47917 9.90417 9.2875 9.7125C9.09583 9.52083 9 9.28333 9 9C9 8.71667 9.09583 8.47917 9.2875 8.2875C9.47917 8.09583 9.71667 8 10 8C10.2833 8 10.5208 8.09583 10.7125 8.2875C10.9042 8.47917 11 8.71667 11 9C11 9.28333 10.9042 9.52083 10.7125 9.7125C10.5208 9.90417 10.2833 10 10 10Z" fill="white"/>
</svg>
