<svg width="20" height="20" viewBox="0 0 20 20" fill="none" xmlns="http://www.w3.org/2000/svg">
<path d="M14 13C13.1667 13 12.4583 12.7083 11.875 12.125C11.2917 11.5417 11 10.8333 11 10C11 9.16667 11.2917 8.45833 11.875 7.875C12.4583 7.29167 13.1667 7 14 7C14.8333 7 15.5417 7.29167 16.125 7.875C16.7083 8.45833 17 9.16667 17 10C17 10.8333 16.7083 11.5417 16.125 12.125C15.5417 12.7083 14.8333 13 14 13ZM14 11C14.2833 11 14.5208 10.9042 14.7125 10.7125C14.9042 10.5208 15 10.2833 15 10C15 9.71667 14.9042 9.47917 14.7125 9.2875C14.5208 9.09583 14.2833 9 14 9C13.7167 9 13.4792 9.09583 13.2875 9.2875C13.0958 9.47917 13 9.71667 13 10C13 10.2833 13.0958 10.5208 13.2875 10.7125C13.4792 10.9042 13.7167 11 14 11ZM9 20C8.71667 20 8.47917 19.9042 8.2875 19.7125C8.09583 19.5208 8 19.2833 8 19V17.1C8 16.75 8.08333 16.4208 8.25 16.1125C8.41667 15.8042 8.65 15.5583 8.95 15.375C9.48333 15.0583 9.93333 14.8375 10.3 14.7125C10.6667 14.5875 11.1583 14.475 11.775 14.375C11.975 14.3417 12.175 14.3458 12.375 14.3875C12.575 14.4292 12.7417 14.525 12.875 14.675L14 16L15.1 14.675C15.2333 14.5083 15.4 14.4083 15.6 14.375C15.8 14.3417 16 14.3417 16.2 14.375C16.8167 14.475 17.3083 14.5875 17.675 14.7125C18.0417 14.8375 18.4917 15.0583 19.025 15.375C19.325 15.5583 19.5625 15.8042 19.7375 16.1125C19.9125 16.4208 20 16.75 20 17.1V19C20 19.2833 19.9042 19.5208 19.7125 19.7125C19.5208 19.9042 19.2833 20 19 20H9ZM9.975 18H13.05L11.7 16.35C11.4 16.4333 11.1083 16.5417 10.825 16.675C10.5417 16.8083 10.2583 16.95 9.975 17.1V18ZM14.95 18H18V17.1C17.7333 16.9333 17.4583 16.7875 17.175 16.6625C16.8917 16.5375 16.6 16.4333 16.3 16.35L14.95 18ZM2 16V2V5.425V5V16ZM2 18C1.45 18 0.979167 17.8042 0.5875 17.4125C0.195833 17.0208 0 16.55 0 16V2C0 1.45 0.195833 0.979167 0.5875 0.5875C0.979167 0.195833 1.45 0 2 0H16C16.55 0 17.0208 0.195833 17.4125 0.5875C17.8042 0.979167 18 1.45 18 2V7C17.7333 6.66667 17.4417 6.35 17.125 6.05C16.8083 5.75 16.4333 5.55 16 5.45V2H2V16H6.15C6.1 16.1833 6.0625 16.3667 6.0375 16.55C6.0125 16.7333 6 16.9167 6 17.1V18H2ZM5 6H11C11.4333 5.66667 11.9083 5.41667 12.425 5.25C12.9417 5.08333 13.4667 5 14 5C14 4.71667 13.9042 4.47917 13.7125 4.2875C13.5208 4.09583 13.2833 4 13 4H5C4.71667 4 4.47917 4.09583 4.2875 4.2875C4.09583 4.47917 4 4.71667 4 5C4 5.28333 4.09583 5.52083 4.2875 5.7125C4.47917 5.90417 4.71667 6 5 6ZM5 10H9C9 9.65 9.0375 9.30833 9.1125 8.975C9.1875 8.64167 9.29167 8.31667 9.425 8H5C4.71667 8 4.47917 8.09583 4.2875 8.2875C4.09583 8.47917 4 8.71667 4 9C4 9.28333 4.09583 9.52083 4.2875 9.7125C4.47917 9.90417 4.71667 10 5 10ZM5 14H7.45C7.63333 13.85 7.82917 13.7167 8.0375 13.6C8.24583 13.4833 8.45833 13.375 8.675 13.275V13C8.675 12.7333 8.60417 12.5 8.4625 12.3C8.32083 12.1 8.05833 12 7.675 12H5C4.71667 12 4.47917 12.0958 4.2875 12.2875C4.09583 12.4792 4 12.7167 4 13C4 13.2833 4.09583 13.5208 4.2875 13.7125C4.47917 13.9042 4.71667 14 5 14Z" fill="white"/>
</svg>
