<svg width="18" height="18" viewBox="0 0 18 18" fill="none" xmlns="http://www.w3.org/2000/svg">
<path d="M2 18C1.45 18 0.979167 17.8042 0.5875 17.4125C0.195833 17.0208 0 16.55 0 16V2C0 1.45 0.195833 0.979167 0.5875 0.5875C0.979167 0.195833 1.45 0 2 0H16C16.55 0 17.0208 0.195833 17.4125 0.5875C17.8042 0.979167 18 1.45 18 2V16C18 16.55 17.8042 17.0208 17.4125 17.4125C17.0208 17.8042 16.55 18 16 18H2ZM14.275 16H16V14.275L14.275 16ZM2.85 16H4.675L7.675 13H9.8L6.8 16H8.4L11.4 13H13.525L10.525 16H12.15L15.15 13H16V2H2V14.725L3.725 13H5.85L2.85 16ZM7.675 8L5.35 10.3C5.16667 10.4833 4.9375 10.5792 4.6625 10.5875C4.3875 10.5958 4.15 10.5 3.95 10.3C3.76667 10.1167 3.675 9.88333 3.675 9.6C3.675 9.31667 3.76667 9.08333 3.95 8.9L6.975 5.875C7.175 5.675 7.40833 5.575 7.675 5.575C7.94167 5.575 8.175 5.675 8.375 5.875L9.675 7.175L12.65 4.2C12.8333 4.01667 13.0625 3.92083 13.3375 3.9125C13.6125 3.90417 13.85 4 14.05 4.2C14.2333 4.38333 14.325 4.61667 14.325 4.9C14.325 5.18333 14.2333 5.41667 14.05 5.6L10.375 9.3C10.175 9.5 9.94167 9.6 9.675 9.6C9.40833 9.6 9.175 9.5 8.975 9.3L7.675 8Z" fill="white"/>
</svg>
