<svg width="18" height="20" viewBox="0 0 18 20" fill="none" xmlns="http://www.w3.org/2000/svg">
<path d="M10.7316 19.2353H7.26842C7.03755 19.2353 6.83745 19.1583 6.66814 19.0044C6.49883 18.8505 6.39879 18.6581 6.368 18.4272L6.09095 16.2801C5.89086 16.2031 5.70231 16.1108 5.5253 16.003C5.3483 15.8953 5.17514 15.7798 5.00583 15.6567L2.9972 16.4879C2.78172 16.5648 2.56623 16.5725 2.35075 16.5109C2.13526 16.4494 1.96595 16.3185 1.84282 16.1184L0.134328 13.1401C0.011194 12.94 -0.0272854 12.7246 0.0188899 12.4937C0.0650653 12.2628 0.180504 12.0781 0.365205 11.9396L2.09678 10.6236C2.08139 10.5158 2.07369 10.4119 2.07369 10.3119V9.68853C2.07369 9.58848 2.08139 9.48459 2.09678 9.37684L0.365205 8.06085C0.180504 7.92232 0.0650653 7.73762 0.0188899 7.50674C-0.0272854 7.27586 0.011194 7.06038 0.134328 6.86029L1.84282 3.88197C1.95056 3.66649 2.11602 3.53181 2.3392 3.47794C2.56238 3.42407 2.78172 3.43561 2.9972 3.51257L5.00583 4.34373C5.17514 4.22059 5.35215 4.10516 5.53685 3.99741C5.72155 3.88967 5.90625 3.79732 6.09095 3.72036L6.368 1.57321C6.39879 1.34233 6.49883 1.14993 6.66814 0.996014C6.83745 0.842096 7.03755 0.765137 7.26842 0.765137H10.7316C10.9625 0.765137 11.1625 0.842096 11.3319 0.996014C11.5012 1.14993 11.6012 1.34233 11.632 1.57321L11.909 3.72036C12.1091 3.79732 12.2977 3.88967 12.4747 3.99741C12.6517 4.10516 12.8249 4.22059 12.9942 4.34373L15.0028 3.51257C15.2183 3.43561 15.4338 3.42792 15.6493 3.48948C15.8647 3.55105 16.034 3.68188 16.1572 3.88197L17.8657 6.86029C17.9888 7.06038 18.0273 7.27586 17.9811 7.50674C17.9349 7.73762 17.8195 7.92232 17.6348 8.06085L15.9032 9.37684C15.9186 9.48459 15.9263 9.58848 15.9263 9.68853V10.3119C15.9263 10.4119 15.9109 10.5158 15.8801 10.6236L17.6117 11.9396C17.7964 12.0781 17.9118 12.2628 17.958 12.4937C18.0042 12.7246 17.9657 12.94 17.8426 13.1401L16.1341 16.0954C16.011 16.2955 15.8378 16.4301 15.6146 16.4994C15.3914 16.5687 15.1721 16.5648 14.9566 16.4879L12.9942 15.6567C12.8249 15.7798 12.6479 15.8953 12.4632 16.003C12.2785 16.1108 12.0938 16.2031 11.909 16.2801L11.632 18.4272C11.6012 18.6581 11.5012 18.8505 11.3319 19.0044C11.1625 19.1583 10.9625 19.2353 10.7316 19.2353ZM9.04618 13.2325C9.9389 13.2325 10.7008 12.917 11.3319 12.2859C11.9629 11.6548 12.2785 10.8929 12.2785 10.0002C12.2785 9.10749 11.9629 8.34559 11.3319 7.71453C10.7008 7.08347 9.9389 6.76793 9.04618 6.76793C8.13806 6.76793 7.37232 7.08347 6.74895 7.71453C6.12558 8.34559 5.8139 9.10749 5.8139 10.0002C5.8139 10.8929 6.12558 11.6548 6.74895 12.2859C7.37232 12.917 8.13806 13.2325 9.04618 13.2325ZM9.04618 11.3855C8.66138 11.3855 8.33431 11.2508 8.06495 10.9814C7.79559 10.7121 7.66091 10.385 7.66091 10.0002C7.66091 9.61542 7.79559 9.28834 8.06495 9.01898C8.33431 8.74963 8.66138 8.61495 9.04618 8.61495C9.43097 8.61495 9.75805 8.74963 10.0274 9.01898C10.2968 9.28834 10.4314 9.61542 10.4314 10.0002C10.4314 10.385 10.2968 10.7121 10.0274 10.9814C9.75805 11.2508 9.43097 11.3855 9.04618 11.3855ZM8.07649 17.3883H9.90042L10.2236 14.941C10.7008 14.8178 11.1433 14.637 11.5512 14.3984C11.9591 14.1598 12.3323 13.8712 12.6709 13.5326L14.9566 14.4792L15.857 12.9093L13.8715 11.4086C13.9485 11.1931 14.0023 10.966 14.0331 10.7275C14.0639 10.4889 14.0793 10.2465 14.0793 10.0002C14.0793 9.75394 14.0639 9.51152 14.0331 9.27295C14.0023 9.03438 13.9485 8.80735 13.8715 8.59186L15.857 7.09116L14.9566 5.5212L12.6709 6.49088C12.3323 6.13687 11.9591 5.84058 11.5512 5.60201C11.1433 5.36343 10.7008 5.18258 10.2236 5.05945L9.92351 2.61215H8.09958L7.77635 5.05945C7.29921 5.18258 6.85669 5.36343 6.44881 5.60201C6.04093 5.84058 5.66768 6.12918 5.32906 6.46779L3.04338 5.5212L2.14296 7.09116L4.1285 8.56877C4.05154 8.79965 3.99767 9.03053 3.96688 9.2614C3.9361 9.49228 3.92071 9.73855 3.92071 10.0002C3.92071 10.2465 3.9361 10.4851 3.96688 10.7159C3.99767 10.9468 4.05154 11.1777 4.1285 11.4086L2.14296 12.9093L3.04338 14.4792L5.32906 13.5095C5.66768 13.8636 6.04093 14.1598 6.44881 14.3984C6.85669 14.637 7.29921 14.8178 7.77635 14.941L8.07649 17.3883Z" fill="white"/>
</svg>
