<svg width="20" height="21" viewBox="0 0 20 21" fill="none" xmlns="http://www.w3.org/2000/svg">
<path d="M2.37843 18.0297H3.88439L13.1622 8.75193L11.6562 7.24597L2.37843 16.5238V18.0297ZM17.7608 7.19218L13.1891 2.67429L14.6951 1.16833C15.1074 0.755978 15.6139 0.549805 16.2145 0.549805C16.8151 0.549805 17.3215 0.755978 17.7339 1.16833L19.2399 2.67429C19.6522 3.08664 19.8673 3.58414 19.8853 4.16681C19.9032 4.74947 19.706 5.24698 19.2936 5.65933L17.7608 7.19218ZM1.30274 20.1811C0.997961 20.1811 0.742485 20.078 0.536311 19.8719C0.330138 19.6657 0.227051 19.4102 0.227051 19.1054V16.0666C0.227051 15.9232 0.253943 15.7842 0.307727 15.6498C0.361512 15.5153 0.442189 15.3943 0.549757 15.2867L11.6294 4.20715L16.201 8.77882L5.12143 19.8584C5.01387 19.966 4.89285 20.0467 4.75839 20.1004C4.62393 20.1542 4.48499 20.1811 4.34156 20.1811H1.30274Z" fill="#064C7E"/>
</svg>
