<svg width="13" height="13" viewBox="0 0 13 13" fill="none" xmlns="http://www.w3.org/2000/svg">
<path d="M5.875 7.375H1.5C1.25208 7.375 1.04427 7.29115 0.876563 7.12344C0.708854 6.95573 0.625 6.74792 0.625 6.5C0.625 6.25208 0.708854 6.04427 0.876563 5.87656C1.04427 5.70885 1.25208 5.625 1.5 5.625H5.875V1.25C5.875 1.00208 5.95885 0.794271 6.12656 0.626563C6.29427 0.458854 6.50208 0.375 6.75 0.375C6.99792 0.375 7.20573 0.458854 7.37344 0.626563C7.54115 0.794271 7.625 1.00208 7.625 1.25V5.625H12C12.2479 5.625 12.4557 5.70885 12.6234 5.87656C12.7911 6.04427 12.875 6.25208 12.875 6.5C12.875 6.74792 12.7911 6.95573 12.6234 7.12344C12.4557 7.29115 12.2479 7.375 12 7.375H7.625V11.75C7.625 11.9979 7.54115 12.2057 7.37344 12.3734C7.20573 12.5411 6.99792 12.625 6.75 12.625C6.50208 12.625 6.29427 12.5411 6.12656 12.3734C5.95885 12.2057 5.875 11.9979 5.875 11.75V7.375Z" fill="white"/>
</svg>
