<svg width="16" height="20" viewBox="0 0 16 20" fill="none" xmlns="http://www.w3.org/2000/svg">
<path d="M5 16H11C11.2833 16 11.5208 15.9042 11.7125 15.7125C11.9042 15.5208 12 15.2833 12 15C12 14.7167 11.9042 14.4792 11.7125 14.2875C11.5208 14.0958 11.2833 14 11 14H5C4.71667 14 4.47917 14.0958 4.2875 14.2875C4.09583 14.4792 4 14.7167 4 15C4 15.2833 4.09583 15.5208 4.2875 15.7125C4.47917 15.9042 4.71667 16 5 16ZM5 12H11C11.2833 12 11.5208 11.9042 11.7125 11.7125C11.9042 11.5208 12 11.2833 12 11C12 10.7167 11.9042 10.4792 11.7125 10.2875C11.5208 10.0958 11.2833 10 11 10H5C4.71667 10 4.47917 10.0958 4.2875 10.2875C4.09583 10.4792 4 10.7167 4 11C4 11.2833 4.09583 11.5208 4.2875 11.7125C4.47917 11.9042 4.71667 12 5 12ZM2 20C1.45 20 0.979167 19.8042 0.5875 19.4125C0.195833 19.0208 0 18.55 0 18V2C0 1.45 0.195833 0.979167 0.5875 0.5875C0.979167 0.195833 1.45 0 2 0H9.175C9.44167 0 9.69583 0.05 9.9375 0.15C10.1792 0.25 10.3917 0.391667 10.575 0.575L15.425 5.425C15.6083 5.60833 15.75 5.82083 15.85 6.0625C15.95 6.30417 16 6.55833 16 6.825V18C16 18.55 15.8042 19.0208 15.4125 19.4125C15.0208 19.8042 14.55 20 14 20H2ZM9 6V2H2V18H14V7H10C9.71667 7 9.47917 6.90417 9.2875 6.7125C9.09583 6.52083 9 6.28333 9 6Z" fill="white"/>
</svg>
