<svg width="27" height="27" viewBox="0 0 27 27" fill="none" xmlns="http://www.w3.org/2000/svg">
<mask id="mask0_1666_5366" style="mask-type:alpha" maskUnits="userSpaceOnUse" x="0" y="0" width="27" height="27">
<rect x="0.816406" y="0.591797" width="25.8165" height="25.8165" fill="#D9D9D9"/>
</mask>
<g mask="url(#mask0_1666_5366)">
<path d="M8.34669 23.1812C7.75507 23.1812 7.2486 22.9706 6.82728 22.5493C6.40597 22.128 6.19532 21.6215 6.19532 21.0299V7.04591C5.89054 7.04591 5.63506 6.94283 5.42889 6.73665C5.22272 6.53048 5.11963 6.275 5.11963 5.97023C5.11963 5.66545 5.22272 5.40997 5.42889 5.2038C5.63506 4.99762 5.89054 4.89454 6.19532 4.89454H10.4981C10.4981 4.58976 10.6012 4.33428 10.8073 4.12811C11.0135 3.92193 11.269 3.81885 11.5738 3.81885H15.8765C16.1813 3.81885 16.4368 3.92193 16.6429 4.12811C16.8491 4.33428 16.9522 4.58976 16.9522 4.89454H21.255C21.5597 4.89454 21.8152 4.99762 22.0214 5.2038C22.2276 5.40997 22.3306 5.66545 22.3306 5.97023C22.3306 6.275 22.2276 6.53048 22.0214 6.73665C21.8152 6.94283 21.5597 7.04591 21.255 7.04591V21.0299C21.255 21.6215 21.0443 22.128 20.623 22.5493C20.2017 22.9706 19.6952 23.1812 19.1036 23.1812H8.34669ZM19.1036 7.04591H8.34669V21.0299H19.1036V7.04591ZM10.4981 18.8785H12.6494V9.19729H10.4981V18.8785ZM14.8008 18.8785H16.9522V9.19729H14.8008V18.8785Z" fill="#064C7E"/>
</g>
</svg>
