<svg width="20" height="20" viewBox="0 0 20 20" fill="none" xmlns="http://www.w3.org/2000/svg">
<path d="M3 14.875V9.875C3 9.59167 3.09583 9.35417 3.2875 9.1625C3.47917 8.97083 3.71667 8.875 4 8.875C4.28333 8.875 4.52083 8.97083 4.7125 9.1625C4.90417 9.35417 5 9.59167 5 9.875V14.875C5 15.1583 4.90417 15.3958 4.7125 15.5875C4.52083 15.7792 4.28333 15.875 4 15.875C3.71667 15.875 3.47917 15.7792 3.2875 15.5875C3.09583 15.3958 3 15.1583 3 14.875ZM9 14.875V9.875C9 9.59167 9.09583 9.35417 9.2875 9.1625C9.47917 8.97083 9.71667 8.875 10 8.875C10.2833 8.875 10.5208 8.97083 10.7125 9.1625C10.9042 9.35417 11 9.59167 11 9.875V14.875C11 15.1583 10.9042 15.3958 10.7125 15.5875C10.5208 15.7792 10.2833 15.875 10 15.875C9.71667 15.875 9.47917 15.7792 9.2875 15.5875C9.09583 15.3958 9 15.1583 9 14.875ZM1 19.875C0.716667 19.875 0.479167 19.7792 0.2875 19.5875C0.0958333 19.3958 0 19.1583 0 18.875C0 18.5917 0.0958333 18.3542 0.2875 18.1625C0.479167 17.9708 0.716667 17.875 1 17.875H19C19.2833 17.875 19.5208 17.9708 19.7125 18.1625C19.9042 18.3542 20 18.5917 20 18.875C20 19.1583 19.9042 19.3958 19.7125 19.5875C19.5208 19.7792 19.2833 19.875 19 19.875H1ZM15 14.875V9.875C15 9.59167 15.0958 9.35417 15.2875 9.1625C15.4792 8.97083 15.7167 8.875 16 8.875C16.2833 8.875 16.5208 8.97083 16.7125 9.1625C16.9042 9.35417 17 9.59167 17 9.875V14.875C17 15.1583 16.9042 15.3958 16.7125 15.5875C16.5208 15.7792 16.2833 15.875 16 15.875C15.7167 15.875 15.4792 15.7792 15.2875 15.5875C15.0958 15.3958 15 15.1583 15 14.875ZM19 6.875H0.9C0.65 6.875 0.4375 6.7875 0.2625 6.6125C0.0875 6.4375 0 6.225 0 5.975V5.425C0 5.24167 0.0458333 5.08333 0.1375 4.95C0.229167 4.81667 0.35 4.70833 0.5 4.625L9.1 0.325C9.38333 0.191667 9.68333 0.125 10 0.125C10.3167 0.125 10.6167 0.191667 10.9 0.325L19.45 4.6C19.6333 4.68333 19.7708 4.80833 19.8625 4.975C19.9542 5.14167 20 5.31667 20 5.5V5.875C20 6.15833 19.9042 6.39583 19.7125 6.5875C19.5208 6.77917 19.2833 6.875 19 6.875ZM4.45 4.875H15.55L10 2.125L4.45 4.875Z" fill="white"/>
</svg>
